<?xml version="1.0" standalone="no"?>
 <!DOCTYPE svg PUBLIC "-//W3C//DTD SVG 1.1//EN" 
 "http://www.w3.org/Graphics/SVG/1.1/DTD/svg11.dtd"> 
<svg
  xmlns:svg="http://www.w3.org/2000/svg"
  xmlns="http://www.w3.org/2000/svg"
  xmlns:xlink="http://www.w3.org/1999/xlink"
  version="1.1"
  width="29.700220cm" height="21.000720cm" viewBox="0 0 297002200 210007200">
<title>SVG Picture created as roost_plate-Edge_Cuts.svg date 2021/11/23 12:30:32 </title>
  <desc>Picture generated by PCBNEW </desc>
<g style="fill:#000000; fill-opacity:1.000000;stroke:#000000; stroke-opacity:1.000000;
stroke-linecap:round; stroke-linejoin:round;"
 transform="translate(0 0) scale(1 1)">
</g>
<g style="fill:#000000; fill-opacity:0.0; 
stroke:#000000; stroke-width:0.000000; stroke-opacity:1; 
stroke-linecap:round; stroke-linejoin:round;">
</g>
<g style="fill:#000000; fill-opacity:0.0; 
stroke:#000000; stroke-width:21200.000000; stroke-opacity:1; 
stroke-linecap:round; stroke-linejoin:round;">
</g>
<g style="fill:#000000; fill-opacity:0.0; 
stroke:#000000; stroke-width:150000.000000; stroke-opacity:1; 
stroke-linecap:round; stroke-linejoin:round;">
<rect x="177002200.000000" y="166007200.000000" width="108000000.000000" height="32000000.000000" rx="0.000000" />
</g>
<g style="fill:#000000; fill-opacity:0.0; 
stroke:#000000; stroke-width:21200.000000; stroke-opacity:1; 
stroke-linecap:round; stroke-linejoin:round;">
</g>
<g style="fill:#000000; fill-opacity:0.0; 
stroke:#000000; stroke-width:150000.000000; stroke-opacity:1; 
stroke-linecap:round; stroke-linejoin:round;">
<rect x="10000000.000000" y="10000000.000000" width="277002200.000000" height="190007200.000000" rx="0.000000" />
</g>
<g style="fill:#000000; fill-opacity:0.0; 
stroke:#000000; stroke-width:21200.000000; stroke-opacity:1; 
stroke-linecap:round; stroke-linejoin:round;">
</g>
<g style="fill:#000000; fill-opacity:0.0; 
stroke:#000000; stroke-width:150000.000000; stroke-opacity:1; 
stroke-linecap:round; stroke-linejoin:round;">
<rect x="12000000.000000" y="12000000.000000" width="273002200.000000" height="186007200.000000" rx="0.000000" />
</g>
<g style="fill:#000000; fill-opacity:0.0; 
stroke:#000000; stroke-width:21200.000000; stroke-opacity:1; 
stroke-linecap:round; stroke-linejoin:round;">
</g>
<g style="fill:#000000; fill-opacity:0.0; 
stroke:#000000; stroke-width:150000.000000; stroke-opacity:1; 
stroke-linecap:round; stroke-linejoin:round;">
<path d="M60000000 12000000
L60000000 10000000
" />
</g>
<g style="fill:#000000; fill-opacity:0.0; 
stroke:#000000; stroke-width:21200.000000; stroke-opacity:1; 
stroke-linecap:round; stroke-linejoin:round;">
</g>
<g style="fill:#000000; fill-opacity:0.0; 
stroke:#000000; stroke-width:150000.000000; stroke-opacity:1; 
stroke-linecap:round; stroke-linejoin:round;">
<path d="M110000000 12000000
L110000000 10000000
" />
</g>
<g style="fill:#000000; fill-opacity:0.0; 
stroke:#000000; stroke-width:21200.000000; stroke-opacity:1; 
stroke-linecap:round; stroke-linejoin:round;">
</g>
<g style="fill:#000000; fill-opacity:0.0; 
stroke:#000000; stroke-width:150000.000000; stroke-opacity:1; 
stroke-linecap:round; stroke-linejoin:round;">
<path d="M160000000 12000000
L160000000 10000000
" />
</g>
<g style="fill:#000000; fill-opacity:0.0; 
stroke:#000000; stroke-width:21200.000000; stroke-opacity:1; 
stroke-linecap:round; stroke-linejoin:round;">
</g>
<g style="fill:#000000; fill-opacity:0.0; 
stroke:#000000; stroke-width:150000.000000; stroke-opacity:1; 
stroke-linecap:round; stroke-linejoin:round;">
<path d="M210000000 12000000
L210000000 10000000
" />
</g>
<g style="fill:#000000; fill-opacity:0.0; 
stroke:#000000; stroke-width:21200.000000; stroke-opacity:1; 
stroke-linecap:round; stroke-linejoin:round;">
</g>
<g style="fill:#000000; fill-opacity:0.0; 
stroke:#000000; stroke-width:150000.000000; stroke-opacity:1; 
stroke-linecap:round; stroke-linejoin:round;">
<path d="M260000000 12000000
L260000000 10000000
" />
</g>
<g style="fill:#000000; fill-opacity:0.0; 
stroke:#000000; stroke-width:21200.000000; stroke-opacity:1; 
stroke-linecap:round; stroke-linejoin:round;">
</g>
<g style="fill:#000000; fill-opacity:0.0; 
stroke:#000000; stroke-width:150000.000000; stroke-opacity:1; 
stroke-linecap:round; stroke-linejoin:round;">
<text x="35000000.000000" y="11650000.000000"
textLength="1438095.000000" font-size="1733333.000000" lengthAdjust="spacingAndGlyphs"
text-anchor="start" opacity="0">1</text>
<g class="stroked-text"><desc>1</desc>
<path d="M36065476 11588095
L35322619 11588095
" />
<path d="M35694047 11588095
L35694047 10288095
L35570238 10473809
L35446428 10597619
L35322619 10659523
" />
</g></g>
<g style="fill:#000000; fill-opacity:0.0; 
stroke:#000000; stroke-width:21200.000000; stroke-opacity:1; 
stroke-linecap:round; stroke-linejoin:round;">
</g>
<g style="fill:#000000; fill-opacity:0.0; 
stroke:#000000; stroke-width:150000.000000; stroke-opacity:1; 
stroke-linecap:round; stroke-linejoin:round;">
<text x="85000000.000000" y="11650000.000000"
textLength="1388095.000000" font-size="1733333.000000" lengthAdjust="spacingAndGlyphs"
text-anchor="start" opacity="0">2</text>
<g class="stroked-text"><desc>2</desc>
<path d="M85322619 10411904
L85384523 10350000
L85508333 10288095
L85817857 10288095
L85941666 10350000
L86003571 10411904
L86065476 10535714
L86065476 10659523
L86003571 10845238
L85260714 11588095
L86065476 11588095
" />
</g></g>
<g style="fill:#000000; fill-opacity:0.0; 
stroke:#000000; stroke-width:21200.000000; stroke-opacity:1; 
stroke-linecap:round; stroke-linejoin:round;">
</g>
<g style="fill:#000000; fill-opacity:0.0; 
stroke:#000000; stroke-width:150000.000000; stroke-opacity:1; 
stroke-linecap:round; stroke-linejoin:round;">
<text x="135000000.000000" y="11650000.000000"
textLength="1388095.000000" font-size="1733333.000000" lengthAdjust="spacingAndGlyphs"
text-anchor="start" opacity="0">3</text>
<g class="stroked-text"><desc>3</desc>
<path d="M135260714 10288095
L136065476 10288095
L135632142 10783333
L135817857 10783333
L135941666 10845238
L136003571 10907142
L136065476 11030952
L136065476 11340476
L136003571 11464285
L135941666 11526190
L135817857 11588095
L135446428 11588095
L135322619 11526190
L135260714 11464285
" />
</g></g>
<g style="fill:#000000; fill-opacity:0.0; 
stroke:#000000; stroke-width:21200.000000; stroke-opacity:1; 
stroke-linecap:round; stroke-linejoin:round;">
</g>
<g style="fill:#000000; fill-opacity:0.0; 
stroke:#000000; stroke-width:150000.000000; stroke-opacity:1; 
stroke-linecap:round; stroke-linejoin:round;">
<text x="185000000.000000" y="11650000.000000"
textLength="1388095.000000" font-size="1733333.000000" lengthAdjust="spacingAndGlyphs"
text-anchor="start" opacity="0">4</text>
<g class="stroked-text"><desc>4</desc>
<path d="M185941666 10721428
L185941666 11588095
" />
<path d="M185632142 10226190
L185322619 11154761
L186127380 11154761
" />
</g></g>
<g style="fill:#000000; fill-opacity:0.0; 
stroke:#000000; stroke-width:21200.000000; stroke-opacity:1; 
stroke-linecap:round; stroke-linejoin:round;">
</g>
<g style="fill:#000000; fill-opacity:0.0; 
stroke:#000000; stroke-width:150000.000000; stroke-opacity:1; 
stroke-linecap:round; stroke-linejoin:round;">
<text x="235000000.000000" y="11650000.000000"
textLength="1388095.000000" font-size="1733333.000000" lengthAdjust="spacingAndGlyphs"
text-anchor="start" opacity="0">5</text>
<g class="stroked-text"><desc>5</desc>
<path d="M236003571 10288095
L235384523 10288095
L235322619 10907142
L235384523 10845238
L235508333 10783333
L235817857 10783333
L235941666 10845238
L236003571 10907142
L236065476 11030952
L236065476 11340476
L236003571 11464285
L235941666 11526190
L235817857 11588095
L235508333 11588095
L235384523 11526190
L235322619 11464285
" />
</g></g>
<g style="fill:#000000; fill-opacity:0.0; 
stroke:#000000; stroke-width:21200.000000; stroke-opacity:1; 
stroke-linecap:round; stroke-linejoin:round;">
</g>
<g style="fill:#000000; fill-opacity:0.0; 
stroke:#000000; stroke-width:150000.000000; stroke-opacity:1; 
stroke-linecap:round; stroke-linejoin:round;">
<text x="285000000.000000" y="11650000.000000"
textLength="1388095.000000" font-size="1733333.000000" lengthAdjust="spacingAndGlyphs"
text-anchor="start" opacity="0">6</text>
<g class="stroked-text"><desc>6</desc>
<path d="M285941666 10288095
L285694047 10288095
L285570238 10350000
L285508333 10411904
L285384523 10597619
L285322619 10845238
L285322619 11340476
L285384523 11464285
L285446428 11526190
L285570238 11588095
L285817857 11588095
L285941666 11526190
L286003571 11464285
L286065476 11340476
L286065476 11030952
L286003571 10907142
L285941666 10845238
L285817857 10783333
L285570238 10783333
L285446428 10845238
L285384523 10907142
L285322619 11030952
" />
</g></g>
<g style="fill:#000000; fill-opacity:0.0; 
stroke:#000000; stroke-width:21200.000000; stroke-opacity:1; 
stroke-linecap:round; stroke-linejoin:round;">
</g>
<g style="fill:#000000; fill-opacity:0.0; 
stroke:#000000; stroke-width:150000.000000; stroke-opacity:1; 
stroke-linecap:round; stroke-linejoin:round;">
<path d="M60000000 198007200
L60000000 200007200
" />
</g>
<g style="fill:#000000; fill-opacity:0.0; 
stroke:#000000; stroke-width:21200.000000; stroke-opacity:1; 
stroke-linecap:round; stroke-linejoin:round;">
</g>
<g style="fill:#000000; fill-opacity:0.0; 
stroke:#000000; stroke-width:150000.000000; stroke-opacity:1; 
stroke-linecap:round; stroke-linejoin:round;">
<path d="M110000000 198007200
L110000000 200007200
" />
</g>
<g style="fill:#000000; fill-opacity:0.0; 
stroke:#000000; stroke-width:21200.000000; stroke-opacity:1; 
stroke-linecap:round; stroke-linejoin:round;">
</g>
<g style="fill:#000000; fill-opacity:0.0; 
stroke:#000000; stroke-width:150000.000000; stroke-opacity:1; 
stroke-linecap:round; stroke-linejoin:round;">
<path d="M160000000 198007200
L160000000 200007200
" />
</g>
<g style="fill:#000000; fill-opacity:0.0; 
stroke:#000000; stroke-width:21200.000000; stroke-opacity:1; 
stroke-linecap:round; stroke-linejoin:round;">
</g>
<g style="fill:#000000; fill-opacity:0.0; 
stroke:#000000; stroke-width:150000.000000; stroke-opacity:1; 
stroke-linecap:round; stroke-linejoin:round;">
<path d="M210000000 198007200
L210000000 200007200
" />
</g>
<g style="fill:#000000; fill-opacity:0.0; 
stroke:#000000; stroke-width:21200.000000; stroke-opacity:1; 
stroke-linecap:round; stroke-linejoin:round;">
</g>
<g style="fill:#000000; fill-opacity:0.0; 
stroke:#000000; stroke-width:150000.000000; stroke-opacity:1; 
stroke-linecap:round; stroke-linejoin:round;">
<path d="M260000000 198007200
L260000000 200007200
" />
</g>
<g style="fill:#000000; fill-opacity:0.0; 
stroke:#000000; stroke-width:21200.000000; stroke-opacity:1; 
stroke-linecap:round; stroke-linejoin:round;">
</g>
<g style="fill:#000000; fill-opacity:0.0; 
stroke:#000000; stroke-width:150000.000000; stroke-opacity:1; 
stroke-linecap:round; stroke-linejoin:round;">
<text x="35000000.000000" y="199657200.000000"
textLength="1388095.000000" font-size="1733333.000000" lengthAdjust="spacingAndGlyphs"
text-anchor="start" opacity="0">1</text>
<g class="stroked-text"><desc>1</desc>
<path d="M36065476 199595295
L35322619 199595295
" />
<path d="M35694047 199595295
L35694047 198295295
L35570238 198481009
L35446428 198604819
L35322619 198666723
" />
</g></g>
<g style="fill:#000000; fill-opacity:0.0; 
stroke:#000000; stroke-width:21200.000000; stroke-opacity:1; 
stroke-linecap:round; stroke-linejoin:round;">
</g>
<g style="fill:#000000; fill-opacity:0.0; 
stroke:#000000; stroke-width:150000.000000; stroke-opacity:1; 
stroke-linecap:round; stroke-linejoin:round;">
<text x="85000000.000000" y="199657200.000000"
textLength="1388095.000000" font-size="1733333.000000" lengthAdjust="spacingAndGlyphs"
text-anchor="start" opacity="0">2</text>
<g class="stroked-text"><desc>2</desc>
<path d="M85322619 198419104
L85384523 198357200
L85508333 198295295
L85817857 198295295
L85941666 198357200
L86003571 198419104
L86065476 198542914
L86065476 198666723
L86003571 198852438
L85260714 199595295
L86065476 199595295
" />
</g></g>
<g style="fill:#000000; fill-opacity:0.0; 
stroke:#000000; stroke-width:21200.000000; stroke-opacity:1; 
stroke-linecap:round; stroke-linejoin:round;">
</g>
<g style="fill:#000000; fill-opacity:0.0; 
stroke:#000000; stroke-width:150000.000000; stroke-opacity:1; 
stroke-linecap:round; stroke-linejoin:round;">
<text x="135000000.000000" y="199657200.000000"
textLength="1388095.000000" font-size="1733333.000000" lengthAdjust="spacingAndGlyphs"
text-anchor="start" opacity="0">3</text>
<g class="stroked-text"><desc>3</desc>
<path d="M135260714 198295295
L136065476 198295295
L135632142 198790533
L135817857 198790533
L135941666 198852438
L136003571 198914342
L136065476 199038152
L136065476 199347676
L136003571 199471485
L135941666 199533390
L135817857 199595295
L135446428 199595295
L135322619 199533390
L135260714 199471485
" />
</g></g>
<g style="fill:#000000; fill-opacity:0.0; 
stroke:#000000; stroke-width:21200.000000; stroke-opacity:1; 
stroke-linecap:round; stroke-linejoin:round;">
</g>
<g style="fill:#000000; fill-opacity:0.0; 
stroke:#000000; stroke-width:150000.000000; stroke-opacity:1; 
stroke-linecap:round; stroke-linejoin:round;">
<text x="185000000.000000" y="199657200.000000"
textLength="1388095.000000" font-size="1733333.000000" lengthAdjust="spacingAndGlyphs"
text-anchor="start" opacity="0">4</text>
<g class="stroked-text"><desc>4</desc>
<path d="M185941666 198728628
L185941666 199595295
" />
<path d="M185632142 198233390
L185322619 199161961
L186127380 199161961
" />
</g></g>
<g style="fill:#000000; fill-opacity:0.0; 
stroke:#000000; stroke-width:21200.000000; stroke-opacity:1; 
stroke-linecap:round; stroke-linejoin:round;">
</g>
<g style="fill:#000000; fill-opacity:0.0; 
stroke:#000000; stroke-width:150000.000000; stroke-opacity:1; 
stroke-linecap:round; stroke-linejoin:round;">
<text x="235000000.000000" y="199657200.000000"
textLength="1388095.000000" font-size="1733333.000000" lengthAdjust="spacingAndGlyphs"
text-anchor="start" opacity="0">5</text>
<g class="stroked-text"><desc>5</desc>
<path d="M236003571 198295295
L235384523 198295295
L235322619 198914342
L235384523 198852438
L235508333 198790533
L235817857 198790533
L235941666 198852438
L236003571 198914342
L236065476 199038152
L236065476 199347676
L236003571 199471485
L235941666 199533390
L235817857 199595295
L235508333 199595295
L235384523 199533390
L235322619 199471485
" />
</g></g>
<g style="fill:#000000; fill-opacity:0.0; 
stroke:#000000; stroke-width:21200.000000; stroke-opacity:1; 
stroke-linecap:round; stroke-linejoin:round;">
</g>
<g style="fill:#000000; fill-opacity:0.0; 
stroke:#000000; stroke-width:150000.000000; stroke-opacity:1; 
stroke-linecap:round; stroke-linejoin:round;">
<text x="285000000.000000" y="199657200.000000"
textLength="1388095.000000" font-size="1733333.000000" lengthAdjust="spacingAndGlyphs"
text-anchor="start" opacity="0">6</text>
<g class="stroked-text"><desc>6</desc>
<path d="M285941666 198295295
L285694047 198295295
L285570238 198357200
L285508333 198419104
L285384523 198604819
L285322619 198852438
L285322619 199347676
L285384523 199471485
L285446428 199533390
L285570238 199595295
L285817857 199595295
L285941666 199533390
L286003571 199471485
L286065476 199347676
L286065476 199038152
L286003571 198914342
L285941666 198852438
L285817857 198790533
L285570238 198790533
L285446428 198852438
L285384523 198914342
L285322619 199038152
" />
</g></g>
<g style="fill:#000000; fill-opacity:0.0; 
stroke:#000000; stroke-width:21200.000000; stroke-opacity:1; 
stroke-linecap:round; stroke-linejoin:round;">
</g>
<g style="fill:#000000; fill-opacity:0.0; 
stroke:#000000; stroke-width:150000.000000; stroke-opacity:1; 
stroke-linecap:round; stroke-linejoin:round;">
<path d="M10000000 60000000
L12000000 60000000
" />
</g>
<g style="fill:#000000; fill-opacity:0.0; 
stroke:#000000; stroke-width:21200.000000; stroke-opacity:1; 
stroke-linecap:round; stroke-linejoin:round;">
</g>
<g style="fill:#000000; fill-opacity:0.0; 
stroke:#000000; stroke-width:150000.000000; stroke-opacity:1; 
stroke-linecap:round; stroke-linejoin:round;">
<path d="M10000000 110000000
L12000000 110000000
" />
</g>
<g style="fill:#000000; fill-opacity:0.0; 
stroke:#000000; stroke-width:21200.000000; stroke-opacity:1; 
stroke-linecap:round; stroke-linejoin:round;">
</g>
<g style="fill:#000000; fill-opacity:0.0; 
stroke:#000000; stroke-width:150000.000000; stroke-opacity:1; 
stroke-linecap:round; stroke-linejoin:round;">
<path d="M10000000 160000000
L12000000 160000000
" />
</g>
<g style="fill:#000000; fill-opacity:0.0; 
stroke:#000000; stroke-width:21200.000000; stroke-opacity:1; 
stroke-linecap:round; stroke-linejoin:round;">
</g>
<g style="fill:#000000; fill-opacity:0.0; 
stroke:#000000; stroke-width:150000.000000; stroke-opacity:1; 
stroke-linecap:round; stroke-linejoin:round;">
<text x="11000000.000000" y="35650000.000000"
textLength="1264286.000000" font-size="1733333.000000" lengthAdjust="spacingAndGlyphs"
text-anchor="middle" opacity="0">A</text>
<g class="stroked-text"><desc>A</desc>
<path d="M10690476 35216666
L11309523 35216666
" />
<path d="M10566666 35588095
L11000000 34288095
L11433333 35588095
" />
</g></g>
<g style="fill:#000000; fill-opacity:0.0; 
stroke:#000000; stroke-width:21200.000000; stroke-opacity:1; 
stroke-linecap:round; stroke-linejoin:round;">
</g>
<g style="fill:#000000; fill-opacity:0.0; 
stroke:#000000; stroke-width:150000.000000; stroke-opacity:1; 
stroke-linecap:round; stroke-linejoin:round;">
<text x="11000000.000000" y="85650000.000000"
textLength="1450000.000000" font-size="1733333.000000" lengthAdjust="spacingAndGlyphs"
text-anchor="middle" opacity="0">B</text>
<g class="stroked-text"><desc>B</desc>
<path d="M11092857 84907142
L11278571 84969047
L11340476 85030952
L11402380 85154761
L11402380 85340476
L11340476 85464285
L11278571 85526190
L11154761 85588095
L10659523 85588095
L10659523 84288095
L11092857 84288095
L11216666 84350000
L11278571 84411904
L11340476 84535714
L11340476 84659523
L11278571 84783333
L11216666 84845238
L11092857 84907142
L10659523 84907142
" />
</g></g>
<g style="fill:#000000; fill-opacity:0.0; 
stroke:#000000; stroke-width:21200.000000; stroke-opacity:1; 
stroke-linecap:round; stroke-linejoin:round;">
</g>
<g style="fill:#000000; fill-opacity:0.0; 
stroke:#000000; stroke-width:150000.000000; stroke-opacity:1; 
stroke-linecap:round; stroke-linejoin:round;">
<text x="11000000.000000" y="135650000.000000"
textLength="1450000.000000" font-size="1733333.000000" lengthAdjust="spacingAndGlyphs"
text-anchor="middle" opacity="0">C</text>
<g class="stroked-text"><desc>C</desc>
<path d="M11402380 135464285
L11340476 135526190
L11154761 135588095
L11030952 135588095
L10845238 135526190
L10721428 135402380
L10659523 135278571
L10597619 135030952
L10597619 134845238
L10659523 134597619
L10721428 134473809
L10845238 134350000
L11030952 134288095
L11154761 134288095
L11340476 134350000
L11402380 134411904
" />
</g></g>
<g style="fill:#000000; fill-opacity:0.0; 
stroke:#000000; stroke-width:21200.000000; stroke-opacity:1; 
stroke-linecap:round; stroke-linejoin:round;">
</g>
<g style="fill:#000000; fill-opacity:0.0; 
stroke:#000000; stroke-width:150000.000000; stroke-opacity:1; 
stroke-linecap:round; stroke-linejoin:round;">
<text x="11000000.000000" y="185650000.000000"
textLength="1450000.000000" font-size="1733333.000000" lengthAdjust="spacingAndGlyphs"
text-anchor="middle" opacity="0">D</text>
<g class="stroked-text"><desc>D</desc>
<path d="M10659523 185588095
L10659523 184288095
L10969047 184288095
L11154761 184350000
L11278571 184473809
L11340476 184597619
L11402380 184845238
L11402380 185030952
L11340476 185278571
L11278571 185402380
L11154761 185526190
L10969047 185588095
L10659523 185588095
" />
</g></g>
<g style="fill:#000000; fill-opacity:0.0; 
stroke:#000000; stroke-width:21200.000000; stroke-opacity:1; 
stroke-linecap:round; stroke-linejoin:round;">
</g>
<g style="fill:#000000; fill-opacity:0.0; 
stroke:#000000; stroke-width:150000.000000; stroke-opacity:1; 
stroke-linecap:round; stroke-linejoin:round;">
<path d="M287002200 60000000
L285002200 60000000
" />
</g>
<g style="fill:#000000; fill-opacity:0.0; 
stroke:#000000; stroke-width:21200.000000; stroke-opacity:1; 
stroke-linecap:round; stroke-linejoin:round;">
</g>
<g style="fill:#000000; fill-opacity:0.0; 
stroke:#000000; stroke-width:150000.000000; stroke-opacity:1; 
stroke-linecap:round; stroke-linejoin:round;">
<path d="M287002200 110000000
L285002200 110000000
" />
</g>
<g style="fill:#000000; fill-opacity:0.0; 
stroke:#000000; stroke-width:21200.000000; stroke-opacity:1; 
stroke-linecap:round; stroke-linejoin:round;">
</g>
<g style="fill:#000000; fill-opacity:0.0; 
stroke:#000000; stroke-width:150000.000000; stroke-opacity:1; 
stroke-linecap:round; stroke-linejoin:round;">
<path d="M287002200 160000000
L285002200 160000000
" />
</g>
<g style="fill:#000000; fill-opacity:0.0; 
stroke:#000000; stroke-width:21200.000000; stroke-opacity:1; 
stroke-linecap:round; stroke-linejoin:round;">
</g>
<g style="fill:#000000; fill-opacity:0.0; 
stroke:#000000; stroke-width:150000.000000; stroke-opacity:1; 
stroke-linecap:round; stroke-linejoin:round;">
<text x="286002200.000000" y="35650000.000000"
textLength="1264286.000000" font-size="1733333.000000" lengthAdjust="spacingAndGlyphs"
text-anchor="middle" opacity="0">A</text>
<g class="stroked-text"><desc>A</desc>
<path d="M285692676 35216666
L286311723 35216666
" />
<path d="M285568866 35588095
L286002200 34288095
L286435533 35588095
" />
</g></g>
<g style="fill:#000000; fill-opacity:0.0; 
stroke:#000000; stroke-width:21200.000000; stroke-opacity:1; 
stroke-linecap:round; stroke-linejoin:round;">
</g>
<g style="fill:#000000; fill-opacity:0.0; 
stroke:#000000; stroke-width:150000.000000; stroke-opacity:1; 
stroke-linecap:round; stroke-linejoin:round;">
<text x="286002200.000000" y="85650000.000000"
textLength="1450000.000000" font-size="1733333.000000" lengthAdjust="spacingAndGlyphs"
text-anchor="middle" opacity="0">B</text>
<g class="stroked-text"><desc>B</desc>
<path d="M286095057 84907142
L286280771 84969047
L286342676 85030952
L286404580 85154761
L286404580 85340476
L286342676 85464285
L286280771 85526190
L286156961 85588095
L285661723 85588095
L285661723 84288095
L286095057 84288095
L286218866 84350000
L286280771 84411904
L286342676 84535714
L286342676 84659523
L286280771 84783333
L286218866 84845238
L286095057 84907142
L285661723 84907142
" />
</g></g>
<g style="fill:#000000; fill-opacity:0.0; 
stroke:#000000; stroke-width:21200.000000; stroke-opacity:1; 
stroke-linecap:round; stroke-linejoin:round;">
</g>
<g style="fill:#000000; fill-opacity:0.0; 
stroke:#000000; stroke-width:150000.000000; stroke-opacity:1; 
stroke-linecap:round; stroke-linejoin:round;">
<text x="286002200.000000" y="135650000.000000"
textLength="1450000.000000" font-size="1733333.000000" lengthAdjust="spacingAndGlyphs"
text-anchor="middle" opacity="0">C</text>
<g class="stroked-text"><desc>C</desc>
<path d="M286404580 135464285
L286342676 135526190
L286156961 135588095
L286033152 135588095
L285847438 135526190
L285723628 135402380
L285661723 135278571
L285599819 135030952
L285599819 134845238
L285661723 134597619
L285723628 134473809
L285847438 134350000
L286033152 134288095
L286156961 134288095
L286342676 134350000
L286404580 134411904
" />
</g></g>
<g style="fill:#000000; fill-opacity:0.0; 
stroke:#000000; stroke-width:21200.000000; stroke-opacity:1; 
stroke-linecap:round; stroke-linejoin:round;">
</g>
<g style="fill:#000000; fill-opacity:0.0; 
stroke:#000000; stroke-width:150000.000000; stroke-opacity:1; 
stroke-linecap:round; stroke-linejoin:round;">
<text x="286002200.000000" y="185650000.000000"
textLength="1450000.000000" font-size="1733333.000000" lengthAdjust="spacingAndGlyphs"
text-anchor="middle" opacity="0">D</text>
<g class="stroked-text"><desc>D</desc>
<path d="M285661723 185588095
L285661723 184288095
L285971247 184288095
L286156961 184350000
L286280771 184473809
L286342676 184597619
L286404580 184845238
L286404580 185030952
L286342676 185278571
L286280771 185402380
L286156961 185526190
L285971247 185588095
L285661723 185588095
" />
</g></g>
<g style="fill:#000000; fill-opacity:0.0; 
stroke:#000000; stroke-width:21200.000000; stroke-opacity:1; 
stroke-linecap:round; stroke-linejoin:round;">
</g>
<g style="fill:#000000; fill-opacity:0.0; 
stroke:#000000; stroke-width:150000.000000; stroke-opacity:1; 
stroke-linecap:round; stroke-linejoin:round;">
<text x="200002200.000000" y="193857200.000000"
textLength="7007143.000000" font-size="2000000.000000" lengthAdjust="spacingAndGlyphs"
text-anchor="start" opacity="0">Date: </text>
<g class="stroked-text"><desc>Date: </desc>
<path d="M200434342 193785771
L200434342 192285771
L200791485 192285771
L201005771 192357200
L201148628 192500057
L201220057 192642914
L201291485 192928628
L201291485 193142914
L201220057 193428628
L201148628 193571485
L201005771 193714342
L200791485 193785771
L200434342 193785771
" />
<path d="M202577200 193785771
L202577200 193000057
L202505771 192857200
L202362914 192785771
L202077200 192785771
L201934342 192857200
" />
<path d="M202577200 193714342
L202434342 193785771
L202077200 193785771
L201934342 193714342
L201862914 193571485
L201862914 193428628
L201934342 193285771
L202077200 193214342
L202434342 193214342
L202577200 193142914
" />
<path d="M203077200 192785771
L203648628 192785771
" />
<path d="M203291485 192285771
L203291485 193571485
L203362914 193714342
L203505771 193785771
L203648628 193785771
" />
<path d="M204720057 193714342
L204577200 193785771
L204291485 193785771
L204148628 193714342
L204077200 193571485
L204077200 193000057
L204148628 192857200
L204291485 192785771
L204577200 192785771
L204720057 192857200
L204791485 193000057
L204791485 193142914
L204077200 193285771
" />
<path d="M205434342 193642914
L205505771 193714342
L205434342 193785771
L205362914 193714342
L205434342 193642914
L205434342 193785771
" />
<path d="M205434342 192857200
L205505771 192928628
L205434342 193000057
L205362914 192928628
L205434342 192857200
L205434342 193000057
" />
</g></g>
<g style="fill:#000000; fill-opacity:0.0; 
stroke:#000000; stroke-width:21200.000000; stroke-opacity:1; 
stroke-linecap:round; stroke-linejoin:round;">
</g>
<g style="fill:#000000; fill-opacity:0.0; 
stroke:#000000; stroke-width:150000.000000; stroke-opacity:1; 
stroke-linecap:round; stroke-linejoin:round;">
<path d="M177002200 194507200
L285002200 194507200
" />
</g>
<g style="fill:#000000; fill-opacity:0.0; 
stroke:#000000; stroke-width:21200.000000; stroke-opacity:1; 
stroke-linecap:round; stroke-linejoin:round;">
</g>
<g style="fill:#000000; fill-opacity:0.0; 
stroke:#000000; stroke-width:150000.000000; stroke-opacity:1; 
stroke-linecap:round; stroke-linejoin:round;">
<text x="178002200.000000" y="196657200.000000"
textLength="58007143.000000" font-size="2000000.000000" lengthAdjust="spacingAndGlyphs"
text-anchor="start" opacity="0">KiCad E.D.A.  kicad (6.0.0-rc1-46-g1d2fd6d271)</text>
<g class="stroked-text"><desc>KiCad E.D.A.  kicad (6.0.0-rc1-46-g1d2fd6d271)</desc>
<path d="M178434342 196585771
L178434342 195085771
" />
<path d="M179291485 196585771
L178648628 195728628
" />
<path d="M179291485 195085771
L178434342 195942914
" />
<path d="M179934342 196585771
L179934342 195585771
" />
<path d="M179934342 195085771
L179862914 195157200
L179934342 195228628
L180005771 195157200
L179934342 195085771
L179934342 195228628
" />
<path d="M181505771 196442914
L181434342 196514342
L181220057 196585771
L181077200 196585771
L180862914 196514342
L180720057 196371485
L180648628 196228628
L180577200 195942914
L180577200 195728628
L180648628 195442914
L180720057 195300057
L180862914 195157200
L181077200 195085771
L181220057 195085771
L181434342 195157200
L181505771 195228628
" />
<path d="M182791485 196585771
L182791485 195800057
L182720057 195657200
L182577200 195585771
L182291485 195585771
L182148628 195657200
" />
<path d="M182791485 196514342
L182648628 196585771
L182291485 196585771
L182148628 196514342
L182077200 196371485
L182077200 196228628
L182148628 196085771
L182291485 196014342
L182648628 196014342
L182791485 195942914
" />
<path d="M184148628 196585771
L184148628 195085771
" />
<path d="M184148628 196514342
L184005771 196585771
L183720057 196585771
L183577200 196514342
L183505771 196442914
L183434342 196300057
L183434342 195871485
L183505771 195728628
L183577200 195657200
L183720057 195585771
L184005771 195585771
L184148628 195657200
" />
<path d="M186005771 195800057
L186505771 195800057
" />
<path d="M186720057 196585771
L186005771 196585771
L186005771 195085771
L186720057 195085771
" />
<path d="M187362914 196442914
L187434342 196514342
L187362914 196585771
L187291485 196514342
L187362914 196442914
L187362914 196585771
" />
<path d="M188077200 196585771
L188077200 195085771
L188434342 195085771
L188648628 195157200
L188791485 195300057
L188862914 195442914
L188934342 195728628
L188934342 195942914
L188862914 196228628
L188791485 196371485
L188648628 196514342
L188434342 196585771
L188077200 196585771
" />
<path d="M189577200 196442914
L189648628 196514342
L189577200 196585771
L189505771 196514342
L189577200 196442914
L189577200 196585771
" />
<path d="M190220057 196157200
L190934342 196157200
" />
<path d="M190077200 196585771
L190577200 195085771
L191077200 196585771
" />
<path d="M191577200 196442914
L191648628 196514342
L191577200 196585771
L191505771 196514342
L191577200 196442914
L191577200 196585771
" />
<path d="M194577200 196585771
L194577200 195085771
" />
<path d="M194720057 196014342
L195148628 196585771
" />
<path d="M195148628 195585771
L194577200 196157200
" />
<path d="M195791485 196585771
L195791485 195585771
" />
<path d="M195791485 195085771
L195720057 195157200
L195791485 195228628
L195862914 195157200
L195791485 195085771
L195791485 195228628
" />
<path d="M197148628 196514342
L197005771 196585771
L196720057 196585771
L196577200 196514342
L196505771 196442914
L196434342 196300057
L196434342 195871485
L196505771 195728628
L196577200 195657200
L196720057 195585771
L197005771 195585771
L197148628 195657200
" />
<path d="M198434342 196585771
L198434342 195800057
L198362914 195657200
L198220057 195585771
L197934342 195585771
L197791485 195657200
" />
<path d="M198434342 196514342
L198291485 196585771
L197934342 196585771
L197791485 196514342
L197720057 196371485
L197720057 196228628
L197791485 196085771
L197934342 196014342
L198291485 196014342
L198434342 195942914
" />
<path d="M199791485 196585771
L199791485 195085771
" />
<path d="M199791485 196514342
L199648628 196585771
L199362914 196585771
L199220057 196514342
L199148628 196442914
L199077200 196300057
L199077200 195871485
L199148628 195728628
L199220057 195657200
L199362914 195585771
L199648628 195585771
L199791485 195657200
" />
<path d="M202077200 197157200
L202005771 197085771
L201862914 196871485
L201791485 196728628
L201720057 196514342
L201648628 196157200
L201648628 195871485
L201720057 195514342
L201791485 195300057
L201862914 195157200
L202005771 194942914
L202077200 194871485
" />
<path d="M203291485 195085771
L203005771 195085771
L202862914 195157200
L202791485 195228628
L202648628 195442914
L202577200 195728628
L202577200 196300057
L202648628 196442914
L202720057 196514342
L202862914 196585771
L203148628 196585771
L203291485 196514342
L203362914 196442914
L203434342 196300057
L203434342 195942914
L203362914 195800057
L203291485 195728628
L203148628 195657200
L202862914 195657200
L202720057 195728628
L202648628 195800057
L202577200 195942914
" />
<path d="M204077200 196442914
L204148628 196514342
L204077200 196585771
L204005771 196514342
L204077200 196442914
L204077200 196585771
" />
<path d="M205077200 195085771
L205220057 195085771
L205362914 195157200
L205434342 195228628
L205505771 195371485
L205577200 195657200
L205577200 196014342
L205505771 196300057
L205434342 196442914
L205362914 196514342
L205220057 196585771
L205077200 196585771
L204934342 196514342
L204862914 196442914
L204791485 196300057
L204720057 196014342
L204720057 195657200
L204791485 195371485
L204862914 195228628
L204934342 195157200
L205077200 195085771
" />
<path d="M206220057 196442914
L206291485 196514342
L206220057 196585771
L206148628 196514342
L206220057 196442914
L206220057 196585771
" />
<path d="M207220057 195085771
L207362914 195085771
L207505771 195157200
L207577200 195228628
L207648628 195371485
L207720057 195657200
L207720057 196014342
L207648628 196300057
L207577200 196442914
L207505771 196514342
L207362914 196585771
L207220057 196585771
L207077200 196514342
L207005771 196442914
L206934342 196300057
L206862914 196014342
L206862914 195657200
L206934342 195371485
L207005771 195228628
L207077200 195157200
L207220057 195085771
" />
<path d="M208362914 196014342
L209505771 196014342
" />
<path d="M210220057 196585771
L210220057 195585771
" />
<path d="M210220057 195871485
L210291485 195728628
L210362914 195657200
L210505771 195585771
L210648628 195585771
" />
<path d="M211791485 196514342
L211648628 196585771
L211362914 196585771
L211220057 196514342
L211148628 196442914
L211077200 196300057
L211077200 195871485
L211148628 195728628
L211220057 195657200
L211362914 195585771
L211648628 195585771
L211791485 195657200
" />
<path d="M213220057 196585771
L212362914 196585771
" />
<path d="M212791485 196585771
L212791485 195085771
L212648628 195300057
L212505771 195442914
L212362914 195514342
" />
<path d="M213862914 196014342
L215005771 196014342
" />
<path d="M216362914 195585771
L216362914 196585771
" />
<path d="M216005771 195014342
L215648628 196085771
L216577200 196085771
" />
<path d="M217791485 195085771
L217505771 195085771
L217362914 195157200
L217291485 195228628
L217148628 195442914
L217077200 195728628
L217077200 196300057
L217148628 196442914
L217220057 196514342
L217362914 196585771
L217648628 196585771
L217791485 196514342
L217862914 196442914
L217934342 196300057
L217934342 195942914
L217862914 195800057
L217791485 195728628
L217648628 195657200
L217362914 195657200
L217220057 195728628
L217148628 195800057
L217077200 195942914
" />
<path d="M218577200 196014342
L219720057 196014342
" />
<path d="M221077200 195585771
L221077200 196800057
L221005771 196942914
L220934342 197014342
L220791485 197085771
L220577200 197085771
L220434342 197014342
" />
<path d="M221077200 196514342
L220934342 196585771
L220648628 196585771
L220505771 196514342
L220434342 196442914
L220362914 196300057
L220362914 195871485
L220434342 195728628
L220505771 195657200
L220648628 195585771
L220934342 195585771
L221077200 195657200
" />
<path d="M222577200 196585771
L221720057 196585771
" />
<path d="M222148628 196585771
L222148628 195085771
L222005771 195300057
L221862914 195442914
L221720057 195514342
" />
<path d="M223862914 196585771
L223862914 195085771
" />
<path d="M223862914 196514342
L223720057 196585771
L223434342 196585771
L223291485 196514342
L223220057 196442914
L223148628 196300057
L223148628 195871485
L223220057 195728628
L223291485 195657200
L223434342 195585771
L223720057 195585771
L223862914 195657200
" />
<path d="M224505771 195228628
L224577200 195157200
L224720057 195085771
L225077200 195085771
L225220057 195157200
L225291485 195228628
L225362914 195371485
L225362914 195514342
L225291485 195728628
L224434342 196585771
L225362914 196585771
" />
<path d="M225791485 195585771
L226362914 195585771
" />
<path d="M226005771 196585771
L226005771 195300057
L226077200 195157200
L226220057 195085771
L226362914 195085771
" />
<path d="M227505771 196585771
L227505771 195085771
" />
<path d="M227505771 196514342
L227362914 196585771
L227077200 196585771
L226934342 196514342
L226862914 196442914
L226791485 196300057
L226791485 195871485
L226862914 195728628
L226934342 195657200
L227077200 195585771
L227362914 195585771
L227505771 195657200
" />
<path d="M228862914 195085771
L228577200 195085771
L228434342 195157200
L228362914 195228628
L228220057 195442914
L228148628 195728628
L228148628 196300057
L228220057 196442914
L228291485 196514342
L228434342 196585771
L228720057 196585771
L228862914 196514342
L228934342 196442914
L229005771 196300057
L229005771 195942914
L228934342 195800057
L228862914 195728628
L228720057 195657200
L228434342 195657200
L228291485 195728628
L228220057 195800057
L228148628 195942914
" />
<path d="M230291485 196585771
L230291485 195085771
" />
<path d="M230291485 196514342
L230148628 196585771
L229862914 196585771
L229720057 196514342
L229648628 196442914
L229577200 196300057
L229577200 195871485
L229648628 195728628
L229720057 195657200
L229862914 195585771
L230148628 195585771
L230291485 195657200
" />
<path d="M230934342 195228628
L231005771 195157200
L231148628 195085771
L231505771 195085771
L231648628 195157200
L231720057 195228628
L231791485 195371485
L231791485 195514342
L231720057 195728628
L230862914 196585771
L231791485 196585771
" />
<path d="M232291485 195085771
L233291485 195085771
L232648628 196585771
" />
<path d="M234648628 196585771
L233791485 196585771
" />
<path d="M234220057 196585771
L234220057 195085771
L234077200 195300057
L233934342 195442914
L233791485 195514342
" />
<path d="M235148628 197157200
L235220057 197085771
L235362914 196871485
L235434342 196728628
L235505771 196514342
L235577199 196157200
L235577199 195871485
L235505771 195514342
L235434342 195300057
L235362914 195157200
L235220057 194942914
L235148628 194871485
" />
</g></g>
<g style="fill:#000000; fill-opacity:0.0; 
stroke:#000000; stroke-width:21200.000000; stroke-opacity:1; 
stroke-linecap:round; stroke-linejoin:round;">
</g>
<g style="fill:#000000; fill-opacity:0.0; 
stroke:#000000; stroke-width:150000.000000; stroke-opacity:1; 
stroke-linecap:round; stroke-linejoin:round;">
<path d="M177002200 191507200
L285002200 191507200
" />
</g>
<g style="fill:#000000; fill-opacity:0.0; 
stroke:#000000; stroke-width:21200.000000; stroke-opacity:1; 
stroke-linecap:round; stroke-linejoin:round;">
</g>
<g style="fill:#000000; fill-opacity:0.0; 
stroke:#000000; stroke-width:300000.000000; stroke-opacity:1; 
stroke-linecap:round; stroke-linejoin:round;">
<text x="263002200.000000" y="193857200.000000"
textLength="5935714.000000" font-size="2000000.000000" lengthAdjust="spacingAndGlyphs"
text-anchor="start" opacity="0">Rev: </text>
<g class="stroked-text"><desc>Rev: </desc>
<path d="M264411485 193785771
L263911485 193071485
" />
<path d="M263554342 193785771
L263554342 192285771
L264125771 192285771
L264268628 192357200
L264340057 192428628
L264411485 192571485
L264411485 192785771
L264340057 192928628
L264268628 193000057
L264125771 193071485
L263554342 193071485
" />
<path d="M265625771 193714342
L265482914 193785771
L265197200 193785771
L265054342 193714342
L264982914 193571485
L264982914 193000057
L265054342 192857200
L265197200 192785771
L265482914 192785771
L265625771 192857200
L265697200 193000057
L265697200 193142914
L264982914 193285771
" />
<path d="M266197200 192785771
L266554342 193785771
L266911485 192785771
" />
<path d="M267482914 193642914
L267554342 193714342
L267482914 193785771
L267411485 193714342
L267482914 193642914
L267482914 193785771
" />
<path d="M267482914 192857200
L267554342 192928628
L267482914 193000057
L267411485 192928628
L267482914 192857200
L267482914 193000057
" />
</g></g>
<g style="fill:#000000; fill-opacity:0.0; 
stroke:#000000; stroke-width:21200.000000; stroke-opacity:1; 
stroke-linecap:round; stroke-linejoin:round;">
</g>
<g style="fill:#000000; fill-opacity:0.0; 
stroke:#000000; stroke-width:150000.000000; stroke-opacity:1; 
stroke-linecap:round; stroke-linejoin:round;">
<text x="178002200.000000" y="193857200.000000"
textLength="9604286.000000" font-size="2000000.000000" lengthAdjust="spacingAndGlyphs"
text-anchor="start" opacity="0">Size: A4</text>
<g class="stroked-text"><desc>Size: A4</desc>
<path d="M178362914 193714342
L178577200 193785771
L178934342 193785771
L179077200 193714342
L179148628 193642914
L179220057 193500057
L179220057 193357200
L179148628 193214342
L179077200 193142914
L178934342 193071485
L178648628 193000057
L178505771 192928628
L178434342 192857200
L178362914 192714342
L178362914 192571485
L178434342 192428628
L178505771 192357200
L178648628 192285771
L179005771 192285771
L179220057 192357200
" />
<path d="M179862914 193785771
L179862914 192785771
" />
<path d="M179862914 192285771
L179791485 192357200
L179862914 192428628
L179934342 192357200
L179862914 192285771
L179862914 192428628
" />
<path d="M180434342 192785771
L181220057 192785771
L180434342 193785771
L181220057 193785771
" />
<path d="M182362914 193714342
L182220057 193785771
L181934342 193785771
L181791485 193714342
L181720057 193571485
L181720057 193000057
L181791485 192857200
L181934342 192785771
L182220057 192785771
L182362914 192857200
L182434342 193000057
L182434342 193142914
L181720057 193285771
" />
<path d="M183077200 193642914
L183148628 193714342
L183077200 193785771
L183005771 193714342
L183077200 193642914
L183077200 193785771
" />
<path d="M183077200 192857200
L183148628 192928628
L183077200 193000057
L183005771 192928628
L183077200 192857200
L183077200 193000057
" />
<path d="M184862914 193357200
L185577200 193357200
" />
<path d="M184720057 193785771
L185220057 192285771
L185720057 193785771
" />
<path d="M186862914 192785771
L186862914 193785771
" />
<path d="M186505771 192214342
L186148628 193285771
L187077200 193285771
" />
</g></g>
<g style="fill:#000000; fill-opacity:0.0; 
stroke:#000000; stroke-width:21200.000000; stroke-opacity:1; 
stroke-linecap:round; stroke-linejoin:round;">
</g>
<g style="fill:#000000; fill-opacity:0.0; 
stroke:#000000; stroke-width:150000.000000; stroke-opacity:1; 
stroke-linecap:round; stroke-linejoin:round;">
<text x="263002200.000000" y="196657200.000000"
textLength="8507143.000000" font-size="2000000.000000" lengthAdjust="spacingAndGlyphs"
text-anchor="start" opacity="0">Id: 1/1</text>
<g class="stroked-text"><desc>Id: 1/1</desc>
<path d="M263434342 196585771
L263434342 195085771
" />
<path d="M264791485 196585771
L264791485 195085771
" />
<path d="M264791485 196514342
L264648628 196585771
L264362914 196585771
L264220057 196514342
L264148628 196442914
L264077200 196300057
L264077200 195871485
L264148628 195728628
L264220057 195657200
L264362914 195585771
L264648628 195585771
L264791485 195657200
" />
<path d="M265505771 196442914
L265577200 196514342
L265505771 196585771
L265434342 196514342
L265505771 196442914
L265505771 196585771
" />
<path d="M265505771 195657200
L265577200 195728628
L265505771 195800057
L265434342 195728628
L265505771 195657200
L265505771 195800057
" />
<path d="M268148628 196585771
L267291485 196585771
" />
<path d="M267720057 196585771
L267720057 195085771
L267577200 195300057
L267434342 195442914
L267291485 195514342
" />
<path d="M269862914 195014342
L268577200 196942914
" />
<path d="M271148628 196585771
L270291485 196585771
" />
<path d="M270720057 196585771
L270720057 195085771
L270577200 195300057
L270434342 195442914
L270291485 195514342
" />
</g></g>
<g style="fill:#000000; fill-opacity:0.0; 
stroke:#000000; stroke-width:21200.000000; stroke-opacity:1; 
stroke-linecap:round; stroke-linejoin:round;">
</g>
<g style="fill:#000000; fill-opacity:0.0; 
stroke:#000000; stroke-width:150000.000000; stroke-opacity:1; 
stroke-linecap:round; stroke-linejoin:round;">
<path d="M177002200 187507200
L285002200 187507200
" />
</g>
<g style="fill:#000000; fill-opacity:0.0; 
stroke:#000000; stroke-width:21200.000000; stroke-opacity:1; 
stroke-linecap:round; stroke-linejoin:round;">
</g>
<g style="fill:#000000; fill-opacity:0.0; 
stroke:#000000; stroke-width:400000.000000; stroke-opacity:1; 
stroke-linecap:round; stroke-linejoin:round;">
<text x="178002200.000000" y="190307200.000000"
textLength="9409643.000000" font-size="2666666.000000" lengthAdjust="spacingAndGlyphs"
text-anchor="start" opacity="0">Title: </text>
<g class="stroked-text"><desc>Title: </desc>
<path d="M178714580 188211961
L179857438 188211961
" />
<path d="M179036009 190211961
L179286009 188211961
" />
<path d="M180274104 190211961
L180440771 188878628
" />
<path d="M180524104 188211961
L180416961 188307200
L180500295 188402438
L180607438 188307200
L180524104 188211961
L180500295 188402438
" />
<path d="M181107438 188878628
L181869342 188878628
" />
<path d="M181476485 188211961
L181262200 189926247
L181333628 190116723
L181512200 190211961
L181702676 190211961
" />
<path d="M182655057 190211961
L182476485 190116723
L182405057 189926247
L182619342 188211961
" />
<path d="M184190771 190116723
L183988390 190211961
L183607438 190211961
L183428866 190116723
L183357438 189926247
L183452676 189164342
L183571723 188973866
L183774104 188878628
L184155057 188878628
L184333628 188973866
L184405057 189164342
L184381247 189354819
L183405057 189545295
" />
<path d="M185155057 190021485
L185238390 190116723
L185131247 190211961
L185047914 190116723
L185155057 190021485
L185131247 190211961
" />
<path d="M185286009 188973866
L185369342 189069104
L185262200 189164342
L185178866 189069104
L185286009 188973866
L185262200 189164342
" />
</g></g>
<g style="fill:#000000; fill-opacity:0.0; 
stroke:#000000; stroke-width:21200.000000; stroke-opacity:1; 
stroke-linecap:round; stroke-linejoin:round;">
</g>
<g style="fill:#000000; fill-opacity:0.0; 
stroke:#000000; stroke-width:150000.000000; stroke-opacity:1; 
stroke-linecap:round; stroke-linejoin:round;">
<text x="178002200.000000" y="186457200.000000"
textLength="30734286.000000" font-size="2000000.000000" lengthAdjust="spacingAndGlyphs"
text-anchor="start" opacity="0">File: roost_plate.kicad_pcb</text>
<g class="stroked-text"><desc>File: roost_plate.kicad_pcb</desc>
<path d="M178934342 185600057
L178434342 185600057
" />
<path d="M178434342 186385771
L178434342 184885771
L179148628 184885771
" />
<path d="M179720057 186385771
L179720057 185385771
" />
<path d="M179720057 184885771
L179648628 184957200
L179720057 185028628
L179791485 184957200
L179720057 184885771
L179720057 185028628
" />
<path d="M180648628 186385771
L180505771 186314342
L180434342 186171485
L180434342 184885771
" />
<path d="M181791485 186314342
L181648628 186385771
L181362914 186385771
L181220057 186314342
L181148628 186171485
L181148628 185600057
L181220057 185457200
L181362914 185385771
L181648628 185385771
L181791485 185457200
L181862914 185600057
L181862914 185742914
L181148628 185885771
" />
<path d="M182505771 186242914
L182577200 186314342
L182505771 186385771
L182434342 186314342
L182505771 186242914
L182505771 186385771
" />
<path d="M182505771 185457200
L182577200 185528628
L182505771 185600057
L182434342 185528628
L182505771 185457200
L182505771 185600057
" />
<path d="M184362914 186385771
L184362914 185385771
" />
<path d="M184362914 185671485
L184434342 185528628
L184505771 185457200
L184648628 185385771
L184791485 185385771
" />
<path d="M185505771 186385771
L185362914 186314342
L185291485 186242914
L185220057 186100057
L185220057 185671485
L185291485 185528628
L185362914 185457200
L185505771 185385771
L185720057 185385771
L185862914 185457200
L185934342 185528628
L186005771 185671485
L186005771 186100057
L185934342 186242914
L185862914 186314342
L185720057 186385771
L185505771 186385771
" />
<path d="M186862914 186385771
L186720057 186314342
L186648628 186242914
L186577200 186100057
L186577200 185671485
L186648628 185528628
L186720057 185457200
L186862914 185385771
L187077200 185385771
L187220057 185457200
L187291485 185528628
L187362914 185671485
L187362914 186100057
L187291485 186242914
L187220057 186314342
L187077200 186385771
L186862914 186385771
" />
<path d="M187934342 186314342
L188077200 186385771
L188362914 186385771
L188505771 186314342
L188577200 186171485
L188577200 186100057
L188505771 185957200
L188362914 185885771
L188148628 185885771
L188005771 185814342
L187934342 185671485
L187934342 185600057
L188005771 185457200
L188148628 185385771
L188362914 185385771
L188505771 185457200
" />
<path d="M189005771 185385771
L189577200 185385771
" />
<path d="M189220057 184885771
L189220057 186171485
L189291485 186314342
L189434342 186385771
L189577200 186385771
" />
<path d="M189720057 186528628
L190862914 186528628
" />
<path d="M191220057 185385771
L191220057 186885771
" />
<path d="M191220057 185457200
L191362914 185385771
L191648628 185385771
L191791485 185457200
L191862914 185528628
L191934342 185671485
L191934342 186100057
L191862914 186242914
L191791485 186314342
L191648628 186385771
L191362914 186385771
L191220057 186314342
" />
<path d="M192791485 186385771
L192648628 186314342
L192577200 186171485
L192577200 184885771
" />
<path d="M194005771 186385771
L194005771 185600057
L193934342 185457200
L193791485 185385771
L193505771 185385771
L193362914 185457200
" />
<path d="M194005771 186314342
L193862914 186385771
L193505771 186385771
L193362914 186314342
L193291485 186171485
L193291485 186028628
L193362914 185885771
L193505771 185814342
L193862914 185814342
L194005771 185742914
" />
<path d="M194505771 185385771
L195077200 185385771
" />
<path d="M194720057 184885771
L194720057 186171485
L194791485 186314342
L194934342 186385771
L195077200 186385771
" />
<path d="M196148628 186314342
L196005771 186385771
L195720057 186385771
L195577200 186314342
L195505771 186171485
L195505771 185600057
L195577200 185457200
L195720057 185385771
L196005771 185385771
L196148628 185457200
L196220057 185600057
L196220057 185742914
L195505771 185885771
" />
<path d="M196862914 186242914
L196934342 186314342
L196862914 186385771
L196791485 186314342
L196862914 186242914
L196862914 186385771
" />
<path d="M197577200 186385771
L197577200 184885771
" />
<path d="M197720057 185814342
L198148628 186385771
" />
<path d="M198148628 185385771
L197577200 185957200
" />
<path d="M198791485 186385771
L198791485 185385771
" />
<path d="M198791485 184885771
L198720057 184957200
L198791485 185028628
L198862914 184957200
L198791485 184885771
L198791485 185028628
" />
<path d="M200148628 186314342
L200005771 186385771
L199720057 186385771
L199577200 186314342
L199505771 186242914
L199434342 186100057
L199434342 185671485
L199505771 185528628
L199577200 185457200
L199720057 185385771
L200005771 185385771
L200148628 185457200
" />
<path d="M201434342 186385771
L201434342 185600057
L201362914 185457200
L201220057 185385771
L200934342 185385771
L200791485 185457200
" />
<path d="M201434342 186314342
L201291485 186385771
L200934342 186385771
L200791485 186314342
L200720057 186171485
L200720057 186028628
L200791485 185885771
L200934342 185814342
L201291485 185814342
L201434342 185742914
" />
<path d="M202791485 186385771
L202791485 184885771
" />
<path d="M202791485 186314342
L202648628 186385771
L202362914 186385771
L202220057 186314342
L202148628 186242914
L202077200 186100057
L202077200 185671485
L202148628 185528628
L202220057 185457200
L202362914 185385771
L202648628 185385771
L202791485 185457200
" />
<path d="M203148628 186528628
L204291485 186528628
" />
<path d="M204648628 185385771
L204648628 186885771
" />
<path d="M204648628 185457200
L204791485 185385771
L205077200 185385771
L205220057 185457200
L205291485 185528628
L205362914 185671485
L205362914 186100057
L205291485 186242914
L205220057 186314342
L205077200 186385771
L204791485 186385771
L204648628 186314342
" />
<path d="M206648628 186314342
L206505771 186385771
L206220057 186385771
L206077200 186314342
L206005771 186242914
L205934342 186100057
L205934342 185671485
L206005771 185528628
L206077200 185457200
L206220057 185385771
L206505771 185385771
L206648628 185457200
" />
<path d="M207291485 186385771
L207291485 184885771
" />
<path d="M207291485 185457200
L207434342 185385771
L207720057 185385771
L207862914 185457200
L207934342 185528628
L208005771 185671485
L208005771 186100057
L207934342 186242914
L207862914 186314342
L207720057 186385771
L207434342 186385771
L207291485 186314342
" />
</g></g>
<g style="fill:#000000; fill-opacity:0.0; 
stroke:#000000; stroke-width:21200.000000; stroke-opacity:1; 
stroke-linecap:round; stroke-linejoin:round;">
</g>
<g style="fill:#000000; fill-opacity:0.0; 
stroke:#000000; stroke-width:150000.000000; stroke-opacity:1; 
stroke-linecap:round; stroke-linejoin:round;">
<path d="M177002200 181507200
L285002200 181507200
" />
</g>
<g style="fill:#000000; fill-opacity:0.0; 
stroke:#000000; stroke-width:21200.000000; stroke-opacity:1; 
stroke-linecap:round; stroke-linejoin:round;">
</g>
<g style="fill:#000000; fill-opacity:0.0; 
stroke:#000000; stroke-width:150000.000000; stroke-opacity:1; 
stroke-linecap:round; stroke-linejoin:round;">
<text x="178002200.000000" y="183757200.000000"
textLength="8221429.000000" font-size="2000000.000000" lengthAdjust="spacingAndGlyphs"
text-anchor="start" opacity="0">Sheet: </text>
<g class="stroked-text"><desc>Sheet: </desc>
<path d="M178362914 183614342
L178577200 183685771
L178934342 183685771
L179077200 183614342
L179148628 183542914
L179220057 183400057
L179220057 183257200
L179148628 183114342
L179077200 183042914
L178934342 182971485
L178648628 182900057
L178505771 182828628
L178434342 182757200
L178362914 182614342
L178362914 182471485
L178434342 182328628
L178505771 182257200
L178648628 182185771
L179005771 182185771
L179220057 182257200
" />
<path d="M179862914 183685771
L179862914 182185771
" />
<path d="M180505771 183685771
L180505771 182900057
L180434342 182757200
L180291485 182685771
L180077200 182685771
L179934342 182757200
L179862914 182828628
" />
<path d="M181791485 183614342
L181648628 183685771
L181362914 183685771
L181220057 183614342
L181148628 183471485
L181148628 182900057
L181220057 182757200
L181362914 182685771
L181648628 182685771
L181791485 182757200
L181862914 182900057
L181862914 183042914
L181148628 183185771
" />
<path d="M183077200 183614342
L182934342 183685771
L182648628 183685771
L182505771 183614342
L182434342 183471485
L182434342 182900057
L182505771 182757200
L182648628 182685771
L182934342 182685771
L183077200 182757200
L183148628 182900057
L183148628 183042914
L182434342 183185771
" />
<path d="M183577200 182685771
L184148628 182685771
" />
<path d="M183791485 182185771
L183791485 183471485
L183862914 183614342
L184005771 183685771
L184148628 183685771
" />
<path d="M184648628 183542914
L184720057 183614342
L184648628 183685771
L184577200 183614342
L184648628 183542914
L184648628 183685771
" />
<path d="M184648628 182757200
L184720057 182828628
L184648628 182900057
L184577200 182828628
L184648628 182757200
L184648628 182900057
" />
</g></g>
<g style="fill:#000000; fill-opacity:0.0; 
stroke:#000000; stroke-width:21200.000000; stroke-opacity:1; 
stroke-linecap:round; stroke-linejoin:round;">
</g>
<g style="fill:#000000; fill-opacity:0.0; 
stroke:#000000; stroke-width:300000.000000; stroke-opacity:1; 
stroke-linecap:round; stroke-linejoin:round;">
<text x="178002200.000000" y="180757200.000000"
textLength="150000.000000" font-size="2000000.000000" lengthAdjust="spacingAndGlyphs"
text-anchor="start" opacity="0"></text>
<g class="stroked-text"><desc></desc>
</g></g>
<g style="fill:#000000; fill-opacity:0.0; 
stroke:#000000; stroke-width:21200.000000; stroke-opacity:1; 
stroke-linecap:round; stroke-linejoin:round;">
</g>
<g style="fill:#000000; fill-opacity:0.0; 
stroke:#000000; stroke-width:150000.000000; stroke-opacity:1; 
stroke-linecap:round; stroke-linejoin:round;">
<text x="178002200.000000" y="177757200.000000"
textLength="300000.000000" font-size="2000000.000000" lengthAdjust="spacingAndGlyphs"
text-anchor="start" opacity="0"></text>
<g class="stroked-text"><desc></desc>
</g></g>
<g style="fill:#000000; fill-opacity:0.0; 
stroke:#000000; stroke-width:21200.000000; stroke-opacity:1; 
stroke-linecap:round; stroke-linejoin:round;">
</g>
<g style="fill:#000000; fill-opacity:0.0; 
stroke:#000000; stroke-width:150000.000000; stroke-opacity:1; 
stroke-linecap:round; stroke-linejoin:round;">
<text x="178002200.000000" y="174757200.000000"
textLength="150000.000000" font-size="2000000.000000" lengthAdjust="spacingAndGlyphs"
text-anchor="start" opacity="0"></text>
<g class="stroked-text"><desc></desc>
</g></g>
<g style="fill:#000000; fill-opacity:0.0; 
stroke:#000000; stroke-width:21200.000000; stroke-opacity:1; 
stroke-linecap:round; stroke-linejoin:round;">
</g>
<g style="fill:#000000; fill-opacity:0.0; 
stroke:#000000; stroke-width:150000.000000; stroke-opacity:1; 
stroke-linecap:round; stroke-linejoin:round;">
<text x="178002200.000000" y="171757200.000000"
textLength="150000.000000" font-size="2000000.000000" lengthAdjust="spacingAndGlyphs"
text-anchor="start" opacity="0"></text>
<g class="stroked-text"><desc></desc>
</g></g>
<g style="fill:#000000; fill-opacity:0.0; 
stroke:#000000; stroke-width:21200.000000; stroke-opacity:1; 
stroke-linecap:round; stroke-linejoin:round;">
</g>
<g style="fill:#000000; fill-opacity:0.0; 
stroke:#000000; stroke-width:150000.000000; stroke-opacity:1; 
stroke-linecap:round; stroke-linejoin:round;">
<text x="178002200.000000" y="168757200.000000"
textLength="150000.000000" font-size="2000000.000000" lengthAdjust="spacingAndGlyphs"
text-anchor="start" opacity="0"></text>
<g class="stroked-text"><desc></desc>
</g></g>
<g style="fill:#000000; fill-opacity:0.0; 
stroke:#000000; stroke-width:21200.000000; stroke-opacity:1; 
stroke-linecap:round; stroke-linejoin:round;">
</g>
<g style="fill:#000000; fill-opacity:0.0; 
stroke:#000000; stroke-width:150000.000000; stroke-opacity:1; 
stroke-linecap:round; stroke-linejoin:round;">
<path d="M197002200 191507200
L197002200 194507200
" />
</g>
<g style="fill:#000000; fill-opacity:0.0; 
stroke:#000000; stroke-width:21200.000000; stroke-opacity:1; 
stroke-linecap:round; stroke-linejoin:round;">
</g>
<g style="fill:#000000; fill-opacity:0.0; 
stroke:#000000; stroke-width:150000.000000; stroke-opacity:1; 
stroke-linecap:round; stroke-linejoin:round;">
<path d="M261002200 191507200
L261002200 198007200
" />
</g>
<g style="fill:#000000; fill-opacity:0.0; 
stroke:#000000; stroke-width:50000.000000; stroke-opacity:1; 
stroke-linecap:round; stroke-linejoin:round;">
<path d="M54538067.084365 123730532.168730 A2236066.000000 2236066.000000 0.0 0 0 53626703.620771 126891000.230246" />
<path d="M70415253.962849 114640999.925698 A2236067.000000 2236067.000000 0.0 0 0 71647303.804777 112774975.988282" />
<path d="M163305704 101364000
L163305704 77234000
" />
<path d="M163305704 77234000
L163305704 65284000
" />
<path d="M161005704.000000 122084000.000000 A2299999.000000 2299999.000000 0.0 0 0 163305704.000000 119784000.000000" />
<path d="M163305704 119784000
L163305704 101364000
" />
<path d="M80005704 131084000
L99005704 125984000
" />
<path d="M60905704.168730 139383999.915635 A2236066.000000 2236066.000000 0.0 0 0 64066172.230246 140295363.379229" />
<path d="M105805704 50684000
L89105704 51084000
" />
<path d="M108105704 46784000
L105805704 50684000
" />
<path d="M128705704 52784000
L126105704 46784000
" />
<path d="M64066172 140295363
L80005704 131084000
" />
<path d="M88705704 53984000
L73126704 54641000
" />
<path d="M70415254 114641000
L54538067 123730532
" />
<path d="M126105704 46784000
L108105704 46784000
" />
<path d="M89105704 51084000
L88705704 53984000
" />
<path d="M99005704 125984000
L161005704 122084000
" />
<path d="M163305704 65284000
L147205704 53084000
" />
<path d="M53626704 126891000
L60905704 139384000
" />
<path d="M71626704 56141000
L71647304 112774976
" />
<path d="M147205704 53084000
L128705704 52784000
" />
<path d="M73126704.000000 54641000.000000 A1500001.000000 1500001.000000 0.0 0 0 71626704.000000 56141000.000000" />
<path d="M63058406 137854418
L56058406 125730062
" />
<path d="M68182762 118730062
L63679430 121330062
" />
<path d="M60561738 123130062
L56058406 125730062
" />
<path d="M75182762 130854418
L68182762 118730062
" />
<path d="M75182762 130854418
L63058406 137854418
" />
<path d="M63679430.207310 121330061.546149 A2209616.000000 2209616.000000 0.0 0 0 60561737.862568 123130061.986888" />
<path d="M161612024 81291840
L161612024 67291840
" />
<path d="M161612024 81291840
L147612024 81291840
" />
<path d="M152812024 67291840
L147612024 67291840
" />
<path d="M147612024 81291840
L147612024 67291840
" />
<path d="M161612024 67291840
L156412024 67291840
" />
<path d="M156412023.972627 67291840.019489 A2209615.000000 2209615.000000 0.0 0 0 152812024.027373 67291840.019489" />
<path d="M114980977 107693827
L109800764 108147037
" />
<path d="M106214463 108460797
L101034251 108914007
" />
<path d="M116201157 121640553
L114980977 107693827
" />
<path d="M102254431 122860733
L101034251 108914007
" />
<path d="M116201157 121640553
L102254431 122860733
" />
<path d="M109800764.308076 108147036.737343 A2209615.000000 2209615.000000 0.0 0 0 106214463.162673 108460797.095630" />
<path d="M73595104 105802920
L73595104 91802920
" />
<path d="M87595104 105802920
L73595104 105802920
" />
<path d="M87595104 91802920
L82395104 91802920
" />
<path d="M87595104 105802920
L87595104 91802920
" />
<path d="M78795104 91802920
L73595104 91802920
" />
<path d="M82395103.972627 91802920.019489 A2209615.000000 2209615.000000 0.0 0 0 78795104.027373 91802920.019489" />
<path d="M161627264 98797520
L161627264 84797520
" />
<path d="M161627264 98797520
L147627264 98797520
" />
<path d="M152827264 84797520
L147627264 84797520
" />
<path d="M161627264 84797520
L156427264 84797520
" />
<path d="M147627264 98797520
L147627264 84797520
" />
<path d="M156427263.972627 84797520.019489 A2209615.000000 2209615.000000 0.0 0 0 152827264.027373 84797520.019489" />
<path d="M92102864 102785320
L92102864 88785320
" />
<path d="M106102864 88785320
L100902864 88785320
" />
<path d="M97302864 88785320
L92102864 88785320
" />
<path d="M106102864 102785320
L92102864 102785320
" />
<path d="M106102864 102785320
L106102864 88785320
" />
<path d="M100902863.972627 88785320.019489 A2209615.000000 2209615.000000 0.0 0 0 97302864.027373 88785320.019489" />
<path d="M73610344 70776320
L73610344 56776320
" />
<path d="M87610344 56776320
L82410344 56776320
" />
<path d="M87610344 70776320
L87610344 56776320
" />
<path d="M78810344 56776320
L73610344 56776320
" />
<path d="M87610344 70776320
L73610344 70776320
" />
<path d="M82410343.972627 56776320.019489 A2209615.000000 2209615.000000 0.0 0 0 78810344.027373 56776320.019489" />
<path d="M143119504 87291400
L129119504 87291400
" />
<path d="M143119504 73291400
L137919504 73291400
" />
<path d="M129119504 87291400
L129119504 73291400
" />
<path d="M134319504 73291400
L129119504 73291400
" />
<path d="M143119504 87291400
L143119504 73291400
" />
<path d="M137919503.972627 73291400.019489 A2209615.000000 2209615.000000 0.0 0 0 134319504.027373 73291400.019489" />
<path d="M143119504 69785720
L129119504 69785720
" />
<path d="M129119504 69785720
L129119504 55785720
" />
<path d="M143119504 69785720
L143119504 55785720
" />
<path d="M134319504 55785720
L129119504 55785720
" />
<path d="M143119504 55785720
L137919504 55785720
" />
<path d="M137919503.972627 55785720.019489 A2209615.000000 2209615.000000 0.0 0 0 134319504.027373 55785720.019489" />
<path d="M73595104 88292160
L73595104 74292160
" />
<path d="M87595104 88292160
L87595104 74292160
" />
<path d="M87595104 88292160
L73595104 88292160
" />
<path d="M87595104 74292160
L82395104 74292160
" />
<path d="M78795104 74292160
L73595104 74292160
" />
<path d="M82395103.972627 74292160.019489 A2209615.000000 2209615.000000 0.0 0 0 78795104.027373 74292160.019489" />
<path d="M124614384 97786600
L110614384 97786600
" />
<path d="M115814384 83786600
L110614384 83786600
" />
<path d="M124614384 83786600
L119414384 83786600
" />
<path d="M124614384 97786600
L124614384 83786600
" />
<path d="M110614384 97786600
L110614384 83786600
" />
<path d="M119414383.972627 83786600.019489 A2209615.000000 2209615.000000 0.0 0 0 115814384.027373 83786600.019489" />
<path d="M92106624 85300040
L92106624 71300040
" />
<path d="M106106624 71300040
L100906624 71300040
" />
<path d="M106106624 85300040
L92106624 85300040
" />
<path d="M106106624 85300040
L106106624 71300040
" />
<path d="M97306624 71300040
L92106624 71300040
" />
<path d="M100906623.972627 71300040.019489 A2209615.000000 2209615.000000 0.0 0 0 97306624.027373 71300040.019489" />
<path d="M81661397 127350614
L78037930 113827653
" />
<path d="M83060744 112481793
L78037930 113827653
" />
<path d="M95184358 123727147
L81661397 127350614
" />
<path d="M91560891 110204186
L86538077 111550045
" />
<path d="M95184358 123727147
L91560891 110204186
" />
<path d="M86538077.089515 111550044.891602 A2209615.000000 2209615.000000 0.0 0 0 83060744.270757 112481793.100963" />
<path d="M106132024 53789280
L100932024 53789280
" />
<path d="M97332024 53789280
L92132024 53789280
" />
<path d="M106132024 67789280
L92132024 67789280
" />
<path d="M92132024 67789280
L92132024 53789280
" />
<path d="M106132024 67789280
L106132024 53789280
" />
<path d="M100932023.972627 53789280.019489 A2209615.000000 2209615.000000 0.0 0 0 97332024.027373 53789280.019489" />
<path d="M115824544 48800640
L110624544 48800640
" />
<path d="M110624544 62800640
L110624544 48800640
" />
<path d="M124624544 62800640
L124624544 48800640
" />
<path d="M124624544 62800640
L110624544 62800640
" />
<path d="M124624544 48800640
L119424544 48800640
" />
<path d="M119424543.972627 48800640.019489 A2209615.000000 2209615.000000 0.0 0 0 115824544.027373 48800640.019489" />
<path d="M134320824 90781760
L129120824 90781760
" />
<path d="M143120824 104781760
L143120824 90781760
" />
<path d="M143120824 90781760
L137920824 90781760
" />
<path d="M143120824 104781760
L129120824 104781760
" />
<path d="M129120824 104781760
L129120824 90781760
" />
<path d="M137920823.972627 90781760.019489 A2209615.000000 2209615.000000 0.0 0 0 134320824.027373 90781760.019489" />
<path d="M124634704 80301240
L110634704 80301240
" />
<path d="M124634704 80301240
L124634704 66301240
" />
<path d="M110634704 80301240
L110634704 66301240
" />
<path d="M115834704 66301240
L110634704 66301240
" />
<path d="M124634704 66301240
L119434704 66301240
" />
<path d="M119434703.972627 66301240.019489 A2209615.000000 2209615.000000 0.0 0 0 115834704.027373 66301240.019489" />
<path d="M161615784 116282880
L147615784 116282880
" />
<path d="M152815784 102282880
L147615784 102282880
" />
<path d="M147615784 116282880
L147615784 102282880
" />
<path d="M161615784 116282880
L161615784 102282880
" />
<path d="M161615784 102282880
L156415784 102282880
" />
<path d="M156415783.972627 102282880.019489 A2209615.000000 2209615.000000 0.0 0 0 152815784.027373 102282880.019489" />
<g >
</g>
<g >
</g>
<g >
</g>
<g >
</g>
<g >
</g>
<g >
</g>
<g >
</g>
<g >
</g>
<g >
</g>
<g >
</g>
<g >
</g>
<g >
</g>
<g >
</g>
<g >
</g>
<g >
</g>
<g >
</g>
<g >
</g>
<g >
</g>
<g >
</g>
<g >
</g>
<g >
</g>
</g> 
</svg>
